<?xml version="1.0" standalone="no"?><!DOCTYPE svg PUBLIC "-//W3C//DTD SVG 1.1//EN" "http://www.w3.org/Graphics/SVG/1.1/DTD/svg11.dtd"><svg class="icon" width="64px" height="64.00px" viewBox="0 0 1024 1024" version="1.1" xmlns="http://www.w3.org/2000/svg"><path fill="#000000" d="M853.333333 254.80533333c40.399238 0 73.142857 33.304381 73.142857 74.386286V800.30476233C926.47619 841.36228533 893.732571 874.66666633 853.333333 874.66666633H170.666667c-40.399238 0-73.142857-33.304381-73.142857-74.361904V329.16723833c0-41.081905 32.743619-74.361905 73.142857-74.361905h682.666666z m0 74.386286H170.666667V800.30476233h682.666666V329.19161933z m-170.666666 119.003428V552.35047633c0 95.841524-76.409905 173.543619-170.666667 173.543619-58.514286 0-110.177524-29.93981-140.921905-75.605333l83.943619-17.456762a95.98781 95.98781 0 0 0 56.978286 18.675809c53.881905 0 97.52381-44.373333 97.52381-99.157333h-29.257143l81.627428-83.041524 20.772572-21.113905z m-170.666667-69.412571c58.514286 0 110.153143 29.93981 140.921905 75.580952l-83.919238 17.505524A95.98781 95.98781 0 0 0 512 453.16876233c-53.881905 0-97.52381 44.397714-97.52381 99.181714h29.257143l-90.307047 91.818667-12.092953 12.31238V552.35047633c0-95.865905 76.409905-173.568 170.666667-173.568zM865.52381 143.23809533v74.361905h-292.571429V143.23809533h292.571429z" /></svg>