<?xml version="1.0" standalone="no"?><!DOCTYPE svg PUBLIC "-//W3C//DTD SVG 1.1//EN" "http://www.w3.org/Graphics/SVG/1.1/DTD/svg11.dtd"><svg t="1778051493084" class="icon" viewBox="0 0 1024 1024" version="1.1" xmlns="http://www.w3.org/2000/svg" p-id="92000" xmlns:xlink="http://www.w3.org/1999/xlink" width="64" height="64"><path d="M950.9 0H73.1C32.7 0 0 32.7 0 73.1v731.4c0 40.4 32.7 73.1 73.1 73.1h877.7c40.4 0 73.1-32.7 73.1-73.1V73.1c0.1-40.4-32.6-73.1-73-73.1z m0 731.4c0 40.4-32.7 73.1-73.1 73.1H146.3c-40.4 0-73.2-32.7-73.2-73.1V146.3c0-40.4 32.8-73.1 73.2-73.1h731.4c40.4 0 73.1 32.7 73.1 73.1v585.1zM146.3 1024h731.4v-73.1H146.3v73.1z m581.8-805h-79.2L538.3 369.7c-8.1 11.5-14.9 22.4-20.4 32.6h-1.4c-6.2-11.9-12.4-22.3-18.7-31.2L392 219h-84.7l163.9 218.8-178.1 220.7h84.4l123.1-165.1c7.8-13.8 12-21.5 12.4-23h1.7c5.3 11.3 9.3 18.9 12.1 22.7l119.6 165.4h84L560.7 436.9 728.1 219z" fill="#000000" p-id="92001"></path></svg>